<svg width="501" height="233" viewBox="0 0 501 233" fill="none" xmlns="http://www.w3.org/2000/svg">
<path d="M500.567 51.8613C501.541 35.3974 500.567 31.6302 500.567 18.9694V13.1711C497.869 4.93917 466.393 4.15191 450.503 4.15191C430.127 4.15191 409.586 4.29027 389.271 5.88976C379.303 6.67463 369.461 9.95256 359.517 10.646C347.956 11.4523 336.312 10.2281 324.742 10.8289C310.656 11.5605 297.191 12.9945 283.072 11.1033C269.36 9.26666 256.267 7.44468 242.451 7.44468C208.758 7.44468 174.71 5.97154 141.123 2.87138C111.891 0.173342 81.1334 -1.94389 51.936 2.87138C40.6955 4.72517 28.9951 6.00869 17.9102 9.09107C14.5912 10.014 7.05838 11.3217 5.16922 15.6766C2.60349 21.5912 4.12 31.2905 4.12 37.9029V66.7147C4.12 82.2925 3.43634 96.5336 1.42191 111.899C-0.472748 126.351 0.072876 140.946 0.072876 155.62C0.072876 180.311 5.17398 203.411 24.3556 215.804C44.1201 228.574 64.2763 231.354 86.4115 231.354C112.449 231.354 138.987 229.707 165.255 229.707C177.971 229.707 189.196 228.836 201.605 226.506C217.558 223.511 235.584 226.715 251.519 227.969C263.052 228.877 277.647 230.173 289.067 227.695C303.43 224.579 317.604 227.737 331.937 228.061C348.941 228.445 365.972 229.707 382.901 229.707C396.849 229.707 410.459 233 424.421 233C438.627 233 452.597 231.354 466.841 231.354C474.235 231.354 485.484 233.499 490.524 225.591C494.181 219.854 495.773 216.708 497.16 209.091C498.489 201.79 500.567 195.097 500.567 185.219L500.567 162.993V130.888V97.9602C500.567 74.4174 499.593 68.3252 500.567 51.8613Z" fill="#A3F937"/>
</svg>
