<svg width="372" height="129" viewBox="0 0 372 129" fill="none" xmlns="http://www.w3.org/2000/svg">
<path d="M0.320988 18.5C-0.401235 8.5 0.320988 6.21185 0.320988 -1.47817V-5C2.32099 -10 25.6527 -10.4782 37.4321 -10.4782C52.5355 -10.4782 67.7625 -10.3941 82.821 -9.42262C90.2102 -8.9459 97.5057 -6.95492 104.877 -6.53373C113.447 -6.04401 122.078 -6.78759 130.654 -6.42262C141.096 -5.97829 151.077 -5.10724 161.543 -6.25595C171.707 -7.37152 181.413 -8.47817 191.654 -8.47817C216.63 -8.47817 241.868 -9.37295 266.765 -11.256C288.434 -12.8947 311.233 -14.1807 332.877 -11.256C341.209 -10.13 349.882 -9.35039 358.099 -7.47817C360.559 -6.91761 366.143 -6.12333 367.543 -3.47817C369.445 0.114302 368.321 6.00553 368.321 10.0218V27.5218C368.321 36.9836 368.828 45.6335 370.321 54.9663C371.725 63.7441 371.321 72.609 371.321 81.5218C371.321 96.5188 367.54 110.55 353.321 118.077C338.67 125.834 323.729 127.522 307.321 127.522C288.02 127.522 268.348 126.522 248.877 126.522C239.451 126.522 231.13 125.992 221.932 124.577C210.106 122.758 196.744 124.704 184.932 125.466C176.383 126.018 165.565 126.805 157.099 125.3C146.453 123.407 135.945 125.325 125.321 125.522C112.716 125.755 100.092 126.522 87.5432 126.522C77.2035 126.522 67.1154 128.522 56.7654 128.522C46.235 128.522 35.8797 127.522 25.321 127.522C19.8397 127.522 11.5012 128.825 7.76543 124.022C5.05507 120.537 3.87473 118.626 2.84662 114C1.86114 109.565 0.320985 105.5 0.32099 99.5L0.320988 86V66.5V46.5C0.320988 32.2004 1.04321 28.5 0.320988 18.5Z" fill="#A3F937"/>
<path d="M11.5 64H26C30.8 64 34.8333 65.6833 38.1 69.05C41.3667 72.4167 43 76.5667 43 81.5C43 86.4667 41.3667 90.6333 38.1 94C34.8667 97.3333 30.8333 99 26 99H11.5V64ZM22 89.3H26C28.0333 89.3 29.7 88.5833 31 87.15C32.3333 85.6833 33 83.8 33 81.5C33 79.2 32.3333 77.3333 31 75.9C29.7 74.4333 28.0333 73.7 26 73.7H22V89.3ZM76.4844 99H65.7344L64.5344 94.5H54.4344L53.2344 99H42.4844L53.6344 64H65.3344L76.4844 99ZM59.4844 75.75L56.5844 86.5H62.3844L59.4844 75.75ZM107.242 98.95H96.5422L90.9922 87.95H88.4922V98.95H78.4922V63.95H92.4922C96.2922 63.95 99.4589 65.0833 101.992 67.35C104.492 69.5833 105.742 72.55 105.742 76.25C105.742 78.3167 105.259 80.1833 104.292 81.85C103.359 83.5167 102.042 84.8667 100.342 85.9L107.242 98.95ZM92.2922 73.15H88.4922V79.65H92.2922C93.3589 79.6833 94.1922 79.4167 94.7922 78.85C95.4255 78.2833 95.7422 77.4833 95.7422 76.45C95.7422 75.4167 95.4255 74.6167 94.7922 74.05C94.1922 73.45 93.3589 73.15 92.2922 73.15ZM109.742 99V64H119.742V99H109.742ZM155.732 99H144.982L143.782 94.5H133.682L132.482 99H121.732L132.882 64H144.582L155.732 99ZM138.732 75.75L135.832 86.5H141.632L138.732 75.75ZM165.75 64H192.25V73.7H184V99H174V73.7H165.75V64ZM223.75 99H213L211.8 94.5H201.7L200.5 99H189.75L200.9 64H212.6L223.75 99ZM206.75 75.75L203.85 86.5H209.65L206.75 75.75ZM244.658 81L255.558 99H244.458L235.758 84V99H225.758V64H235.758V78L243.958 64H255.058L244.658 81ZM255.531 87.3V64H265.531V86.2C265.531 88.8 266.948 90.1 269.781 90.1C272.615 90.1 274.031 88.8 274.031 86.2V64H284.031V87.3C284.031 91.0333 282.715 94.05 280.081 96.35C277.448 98.65 274.015 99.8 269.781 99.8C265.548 99.8 262.115 98.65 259.481 96.35C256.848 94.05 255.531 91.0333 255.531 87.3ZM301.151 99.8C297.384 99.8 294.234 99.0167 291.701 97.45C289.167 95.8833 287.451 93.7333 286.551 91L295.101 86.05C296.267 89.0167 298.367 90.5 301.401 90.5C303.667 90.5 304.801 89.9 304.801 88.7C304.801 87.9667 304.401 87.4333 303.601 87.1C303.201 86.9333 302.784 86.7833 302.351 86.65C302.251 86.6167 301.651 86.4333 300.551 86.1L298.601 85.55C291.634 83.45 288.151 79.7 288.151 74.3C288.151 71.1 289.301 68.45 291.601 66.35C293.967 64.25 297.017 63.2 300.751 63.2C303.751 63.2 306.417 63.9167 308.751 65.35C311.084 66.75 312.801 68.75 313.901 71.35L305.601 76.2C304.634 73.7333 303.034 72.5 300.801 72.5C299.967 72.5 299.317 72.6833 298.851 73.05C298.384 73.3833 298.151 73.8167 298.151 74.35C298.151 75.0833 298.534 75.65 299.301 76.05C300.034 76.4167 301.551 76.9333 303.851 77.6C306.951 78.5333 309.434 79.65 311.301 80.95C313.634 82.55 314.801 85.1 314.801 88.6C314.801 92.1333 313.584 94.8833 311.151 96.85C308.717 98.8167 305.384 99.8 301.151 99.8ZM336.055 76.4V64H346.055V99H336.055V86.1H327.555V99H317.555V64H327.555V76.4H336.055Z" fill="#881EF2"/>
</svg>
