<?xml version="1.0" encoding="utf-8"?>
<!-- Generator: Adobe Illustrator 27.6.1, SVG Export Plug-In . SVG Version: 6.00 Build 0)  -->
<svg version="1.1" id="Layer_1" xmlns="http://www.w3.org/2000/svg" xmlns:xlink="http://www.w3.org/1999/xlink" x="0px" y="0px"
	 viewBox="0 0 841.9 595.3" style="enable-background:new 0 0 841.9 595.3;" xml:space="preserve">
<style type="text/css">
	.st0{fill:#61DAFB;}
	.st1{fill:#801EE5;}
	.st2{fill:#FFE30D;}
	.st3{fill:#E90D97;}
	.st4{stroke:#000000;stroke-width:1.1609;stroke-miterlimit:10;}
</style>
<g>
	<path class="st0" d="M666.3,296.5c0-32.5-40.7-63.3-103.1-82.4c14.4-63.6,8-114.2-20.2-130.4c-6.5-3.8-14.1-5.6-22.4-5.6v22.3
		c4.6,0,8.3,0.9,11.4,2.6c13.6,7.8,19.5,37.5,14.9,75.7c-1.1,9.4-2.9,19.3-5.1,29.4c-19.6-4.8-41-8.5-63.5-10.9
		c-13.5-18.5-27.5-35.3-41.6-50c32.6-30.3,63.2-46.9,84-46.9V78c-27.5,0-63.5,19.6-99.9,53.6c-36.4-33.8-72.4-53.2-99.9-53.2v22.3
		c20.7,0,51.4,16.5,84,46.6c-14,14.7-28,31.4-41.3,49.9c-22.6,2.4-44,6.1-63.6,11c-2.3-10-4-19.7-5.2-29
		c-4.7-38.2,1.1-67.9,14.6-75.8c3-1.8,6.9-2.6,11.5-2.6V78.5c-8.4,0-16,1.8-22.6,5.6c-28.1,16.2-34.4,66.7-19.9,130.1
		c-62.2,19.2-102.7,49.9-102.7,82.3c0,32.5,40.7,63.3,103.1,82.4c-14.4,63.6-8,114.2,20.2,130.4c6.5,3.8,14.1,5.6,22.5,5.6
		c27.5,0,63.5-19.6,99.9-53.6c36.4,33.8,72.4,53.2,99.9,53.2c8.4,0,16-1.8,22.6-5.6c28.1-16.2,34.4-66.7,19.9-130.1
		C625.8,359.7,666.3,328.9,666.3,296.5L666.3,296.5z M536.1,229.8c-3.7,12.9-8.3,26.2-13.5,39.5c-4.1-8-8.4-16-13.1-24
		c-4.6-8-9.5-15.8-14.4-23.4C509.3,224,523,226.6,536.1,229.8L536.1,229.8z M490.3,336.3c-7.8,13.5-15.8,26.3-24.1,38.2
		c-14.9,1.3-30,2-45.2,2c-15.1,0-30.2-0.7-45-1.9c-8.3-11.9-16.4-24.6-24.2-38c-7.6-13.1-14.5-26.4-20.8-39.8
		c6.2-13.4,13.2-26.8,20.7-39.9c7.8-13.5,15.8-26.3,24.1-38.2c14.9-1.3,30-2,45.2-2c15.1,0,30.2,0.7,45,1.9
		c8.3,11.9,16.4,24.6,24.2,38c7.6,13.1,14.5,26.4,20.8,39.8C504.7,309.8,497.8,323.2,490.3,336.3L490.3,336.3z M522.6,323.3
		c5.4,13.4,10,26.8,13.8,39.8c-13.1,3.2-26.9,5.9-41.2,8c4.9-7.7,9.8-15.6,14.4-23.7C514.2,339.4,518.5,331.3,522.6,323.3
		L522.6,323.3z M421.2,430c-9.3-9.6-18.6-20.3-27.8-32c9,0.4,18.2,0.7,27.5,0.7c9.4,0,18.7-0.2,27.8-0.7
		C439.7,409.7,430.4,420.4,421.2,430z M346.8,371.1c-14.2-2.1-27.9-4.7-41-7.9c3.7-12.9,8.3-26.2,13.5-39.5c4.1,8,8.4,16,13.1,24
		S341.9,363.5,346.8,371.1z M420.7,163c9.3,9.6,18.6,20.3,27.8,32c-9-0.4-18.2-0.7-27.5-0.7c-9.4,0-18.7,0.2-27.8,0.7
		C402.2,183.3,411.5,172.6,420.7,163z M346.7,221.9c-4.9,7.7-9.8,15.6-14.4,23.7c-4.6,8-8.9,16-13,24c-5.4-13.4-10-26.8-13.8-39.8
		C318.6,226.7,332.4,224,346.7,221.9L346.7,221.9z M256.2,347.1c-35.4-15.1-58.3-34.9-58.3-50.6s22.9-35.6,58.3-50.6
		c8.6-3.7,18-7,27.7-10.1c5.7,19.6,13.2,40,22.5,60.9c-9.2,20.8-16.6,41.1-22.2,60.6C274.3,354.2,264.9,350.8,256.2,347.1
		L256.2,347.1z M310,490c-13.6-7.8-19.5-37.5-14.9-75.7c1.1-9.4,2.9-19.3,5.1-29.4c19.6,4.8,41,8.5,63.5,10.9
		c13.5,18.5,27.5,35.3,41.6,50c-32.6,30.3-63.2,46.9-84,46.9C316.8,492.6,313,491.7,310,490L310,490z M547.2,413.8
		c4.7,38.2-1.1,67.9-14.6,75.8c-3,1.8-6.9,2.6-11.5,2.6c-20.7,0-51.4-16.5-84-46.6c14-14.7,28-31.4,41.3-49.9
		c22.6-2.4,44-6.1,63.6-11C544.3,394.8,546.1,404.5,547.2,413.8z M585.7,347.1c-8.6,3.7-18,7-27.7,10.1c-5.7-19.6-13.2-40-22.5-60.9
		c9.2-20.8,16.6-41.1,22.2-60.6c9.9,3.1,19.3,6.5,28.1,10.2c35.4,15.1,58.3,34.9,58.3,50.6C644,312.2,621.1,332.1,585.7,347.1
		L585.7,347.1z"/>
	<circle class="st0" cx="420.9" cy="296.5" r="45.7"/>
	<path class="st0" d="M520.5,78.1"/>
</g>
<rect x="-3.3" class="st1" width="845.2" height="599.5"/>
<g>
	<g>
		<path class="st2" d="M596.5,580c1.8-26.8,23.3-50.2,49.2-57.4c25.9-7.2,54.7,0.6,75.6,17.5c17.6,14.2,30.4,35.5,30,58.1
			c-48.2,0.8-96.4,0.1-144.5-2.2c-4.4-0.2-10.1-1.8-10-6.2"/>
		<g>
			<path d="M598.3,580c1-13.5,7.1-26.3,16.3-36.2c9.4-10.2,21.8-17.5,35.3-20.5c14.8-3.3,30.5-1.6,44.7,3.6
				c14.3,5.2,27.2,14.1,37.1,25.5c9.7,11.2,16.7,25.3,17.8,40.3c0.1,1.8,0.2,3.7,0.2,5.5c0.6-0.6,1.2-1.2,1.7-1.7
				c-21.3,0.4-42.5,0.4-63.8,0.2c-21.3-0.2-42.5-0.8-63.8-1.7c-5.8-0.2-11.7-0.3-17.5-0.8c-2.6-0.2-7.6-1-7.7-4.4
				c0-2.2-3.5-2.2-3.5,0c0.1,3.7,3.1,6,6.4,7c4.3,1.4,9.2,1.1,13.6,1.3c11,0.5,22.1,0.9,33.1,1.2c21.9,0.6,43.8,1,65.8,1
				c12.5,0,24.9-0.1,37.4-0.3c0.9,0,1.7-0.8,1.7-1.7c0.2-15.7-5.8-30.9-15.2-43.4c-9.6-12.7-22.4-22.8-37-29.1
				c-14.6-6.3-30.7-9-46.5-6.7c-14.6,2.1-28.2,8.8-38.9,18.9c-10.3,9.7-17.8,22.6-20.1,36.7c-0.3,1.8-0.5,3.6-0.6,5.4
				C594.6,582.3,598.1,582.2,598.3,580L598.3,580z"/>
		</g>
	</g>
	<g>
		<path class="st2" d="M230.2,531.2c11-33.7,36.5-62.4,68.7-77.2c20.6-9.4,43.2-13.3,65.7-16.3c12.4-1.6,24.8-3.1,37.3-4.2
			c41-3.9,83.1-5.1,122.6,6.6c39.5,11.7,76.4,38.1,92,76.2c3.8,9.2,6.2,18.9,8.4,28.7c5.8,26.2,9.4,52.8,10.9,79.6
			c0.2,3.6,0.3,7.5-1.9,10.5c-2.6,3.6-7.6,4.4-12.1,4.8c-108.4,11.2-217.7,22.5-326.2,11.5c-25.3-2.6-50.8-6.3-76.2-4
			c-5.2,0.5-10.6,1.2-15.6-0.2s-9.8-5.5-10-10.8c-0.1-3,1.2-5.7,2.5-8.4c4.1-8.5,8.3-17,12.4-25.5"/>
		<g>
			<path d="M231.9,531.7c9-27.3,27.5-51.3,51.6-67.1c28.8-18.9,63.8-23.2,97.2-27.1c35.4-4.1,71.5-7.2,107-3
				c30.9,3.6,61.1,13.4,86.4,31.9c11.4,8.4,21.6,18.5,29.6,30.1c9.1,13.1,14.5,27.8,18.1,43.3c4.3,18,7.4,36.3,9.6,54.6
				c1.1,9.2,1.9,18.3,2.4,27.6c0.2,3.7,1,8.3-1.1,11.6c-2,3.2-6.2,4-9.7,4.4c-18.4,2.3-36.9,3.8-55.3,5.6c-18.6,1.8-37.2,3.5-55.8,5
				c-37.3,3-74.7,5.1-112.2,5.4c-37.2,0.3-74.5-1.2-111.5-5.2c-18.4-2-36.9-4.2-55.4-3.9c-4.8,0.1-9.5,0.3-14.2,0.8
				c-4.5,0.4-9.1,1-13.5,0c-3.5-0.8-6.9-2.8-8.6-6.1c-2.2-4.2,0.3-8.5,2.1-12.3c3.9-8,7.8-16,11.6-24c1-2-2-3.8-3-1.8
				c-4.2,8.6-8.4,17.2-12.6,25.9c-1.7,3.5-3.2,7.3-2.3,11.2c0.8,3.3,3.1,6,5.9,7.9c7.2,4.9,16.5,2.8,24.6,2.3
				c9.5-0.7,19.1-0.5,28.6,0.1c19.4,1.2,38.7,3.9,58.1,5.5c19.1,1.6,38.3,2.5,57.5,2.9c38.7,0.8,77.5-0.6,116.1-3.1
				c38.7-2.6,77.4-6.3,116-10.3c4.9-0.5,9.9-1,14.8-1.5c4.2-0.4,8.4-0.7,12.5-1.5c3.3-0.7,6.6-2,8.7-4.7c2.3-2.9,2.6-6.7,2.4-10.3
				c-0.6-18.8-3-37.8-6.1-56.4c-3.1-18.2-6.4-37.1-13.5-54.3c-5.5-13.3-13.7-25.4-23.6-35.8c-20.6-21.6-48.1-35.8-76.9-43.1
				c-35.6-9-72.9-8.3-109.3-5.2c-18.7,1.6-37.4,3.7-56,6.6c-17.6,2.7-35.1,6.5-51.5,13.6c-27.2,11.8-50,33.3-63.8,59.6
				c-3.3,6.4-6.1,13-8.4,19.8C227.8,532.9,231.2,533.8,231.9,531.7L231.9,531.7z"/>
		</g>
	</g>
	<g>
		<path class="st2" d="M261.5,481.7c9.5,9.2,19.1,18.4,26.9,29.1c2.3,3.1,53.4,65.1,68,71.1c11.8,4.9,23,11.4,35.4,14.2
			c7.9,1.7,16.1,1.9,24.2,1.6c40-1.7,79-38.2,106.7-71.8c12.8-15.6,29.4-35.5,41.5-51.7c8.1-10.9,5.9-14.6-5.8-20.9
			c-10.1-5.5-20.9-9.8-31.9-13.1c-39.5-11.7-81.6-10.5-122.6-6.6c-12.4,1.2-24.9,2.6-37.3,4.2c-22.5,3-45.1,6.8-65.7,16.3
			c-14.1,6.5-27,15.6-37.9,26.7"/>
	</g>
	<g>
		<g>
			<path class="st2" d="M279.4,224.5c-11.5,26.2-12.3,108.1-8.8,162.3c1.8,26.8,5.4,54.6,19.9,77.3c12.1,19,30.7,33,43.5,51.5
				c9.9,14.3,16.2,31.2,28.2,43.8c19.2,20,52.4,24.9,76.5,11.1c25.5-14.5,37.4-44.1,53.9-68.4c7.5-10.9,16.1-21,25.8-30
				c4.8-4.5,9.9-8.7,13.5-14.1c4.6-6.7,6.8-14.8,8.9-22.7c14.3-53.9,28.7-109.3,23.1-164.8c-2.1-20.7-8.4-41.9-23.2-56.5
				C521.1,194.6,369.8,140.7,279.4,224.5z"/>
			<g>
				<path d="M277.9,223.6c-2.3,5.2-3.7,10.7-4.8,16.3c-1.5,7.3-2.5,14.8-3.2,22.2c-2,18.6-2.6,37.4-2.8,56.1
					c-0.2,19.4,0.2,38.7,1.2,58c1.1,21.3,2.6,42.9,9.1,63.3c3.3,10.5,8.1,20.7,14.5,29.7c6.3,8.9,13.9,16.8,21.4,24.6
					c7.6,8,15.2,16.2,21.2,25.5c5.9,9.2,10.6,19.1,16.5,28.2c5.4,8.4,11.9,15.9,20.2,21.4c7.7,5.1,16.6,8.5,25.7,10
					c9.1,1.5,18.5,1.2,27.5-1c9.1-2.3,17.4-6.7,24.6-12.6c15.3-12.3,25.1-30,35-46.5c5.4-9,11-17.9,17.6-26.2
					c3.7-4.6,7.5-9,11.6-13.2c4-4.1,8.3-7.9,12.5-11.9c4-3.8,7.7-8,10.2-13c2.6-4.9,4.2-10.3,5.7-15.7c3.3-12,6.4-24.1,9.4-36.2
					c6.1-24.6,11.4-49.4,14.1-74.6c1.3-12.4,2-24.9,1.7-37.4c-0.2-11.6-1-23.3-3.3-34.7c-2.1-10.1-5.4-20.1-10.6-29.1
					c-3.4-5.9-7.7-11.9-13.2-16.2c-6.1-4.8-13.4-8.1-20.5-11.2c-10.9-4.7-22.2-8.5-33.6-11.6c-14-3.8-28.3-6.6-42.6-8.5
					c-15.9-2-31.9-2.8-47.9-2c-16.7,0.8-33.3,3.3-49.3,8c-16.6,4.8-32.6,12-47,21.5c-7.3,4.8-14.2,10.3-20.6,16.2
					c-1.6,1.5,0.8,4,2.5,2.5c12.8-11.9,27.5-21.5,43.5-28.6c15.2-6.8,31.3-11.2,47.7-13.8c15.8-2.5,31.9-3.1,47.9-2.4
					c15.1,0.7,30,2.6,44.8,5.6c12.8,2.6,25.4,6,37.8,10.2c9.2,3.2,18.3,6.8,26.8,11.4c2.8,1.5,5.6,3.2,8.2,5.1
					c0.2,0.2-0.2-0.1,0.2,0.1c0.1,0.1,0.2,0.2,0.3,0.3c0.2,0.2,0.5,0.4,0.7,0.6c0.8,0.7,1.4,1.4,2.1,2.1c3.6,3.7,6.6,7.9,9.2,12.3
					c11,18.9,13.2,41.6,13.5,63.1c0.4,24.8-2.8,49.5-7.5,73.8c-4.8,24.3-11,48.3-17.5,72.2c-1.5,5.4-3.1,10.7-5.7,15.7
					c-2.6,4.9-6.3,8.8-10.3,12.6c-8.4,7.9-16.5,15.7-23.6,24.8c-12.4,15.7-21.3,33.8-32.6,50.2c-10.6,15.3-24.3,29.1-42.9,33.7
					c-17.6,4.4-37.1,0.7-52-9.8c-17.3-12.3-24.2-33.4-35.8-50.2c-12.3-17.8-29.9-31.2-42-49.2c-12.4-18.4-17.4-40.4-19.7-62.2
					c-2-19-2.7-38.1-3.1-57.2c-0.4-19.3-0.2-38.5,0.7-57.8c0.8-16,1.9-32.2,5.1-47.9c1-5.1,2.3-10.3,4.4-15.1
					C281.8,223.4,278.8,221.6,277.9,223.6z"/>
			</g>
		</g>
		<g>
			<path class="st2" d="M293.7,233.3c0,3.3,0.5,6.6,0.4,9.9c-0.3,9.6-2.6,19-5,28.3c-3,11.5-6.3,22.9-10,34.2
				c-7.3,22.9-15.9,45.5-19.5,69.3c-2.8,18.8-2.3,38.1-6.2,56.8c-0.7,3.2-1.5,6.4-3.4,9.1c-1.9,2.6-5.1,4.6-8.3,4.1
				c-3.2-0.5-5.5-3-7.6-5.4c-22-25.1-44-50.3-63.3-77.5c-4.6-6.5-9.2-13.6-9.5-21.6c-0.2-6.3,2.4-12.4,4.9-18.2
				c9.5-21.8,18.9-43.6,28.4-65.4c3.8-8.8,7.9-18,15.4-24.1c4.8-3.9,10.7-6.3,16.5-8.4c12.9-4.7,26.1-8.6,39.5-11.6
				c4.8-1.1,10-2.1,14.5-0.2C280.4,212.5,293.6,215.8,293.7,233.3z"/>
			<g>
				<path d="M291.9,233.3c0,2.6,0.3,5.3,0.4,7.9c0.1,2.5-0.1,5-0.4,7.5c-0.5,5-1.5,10-2.7,14.9c-2.3,9.9-5.2,19.8-8.1,29.6
					c-5.8,19.2-12.9,38-18.1,57.4c-2.6,9.6-4.6,19.4-5.9,29.3c-1.2,10-1.7,20.1-2.6,30.2c-0.4,5-1,10-1.8,15
					c-0.7,4.5-1.3,9.6-3.5,13.6c-1.9,3.5-6,6.1-9.8,3.8c-1.8-1.1-3.1-2.7-4.5-4.2c-1.6-1.8-3.2-3.7-4.8-5.5
					c-13.1-15-26.2-30.1-38.6-45.7c-6.2-7.8-12.2-15.7-18-23.8c-5.1-7.2-11-15.2-10.6-24.5c0.2-4.8,2-9.5,3.9-13.9
					c2-4.7,4.1-9.3,6.1-14c4.2-9.6,8.3-19.2,12.5-28.8c4-9.3,8-18.7,12.1-27.9c3.4-7.6,7.4-15.5,14.2-20.6c3.7-2.8,8-4.7,12.3-6.4
					c4.5-1.7,9.1-3.3,13.7-4.8c9.5-3.1,19.2-5.8,29-8c4.5-1,8.7-1.6,13.2-0.1c0.2,0.1,0.4,0.1,0.6,0.2c0.2,0.1,0.4,0.2,0.6,0.2
					c0.2,0.1-0.3-0.2,0.1,0c0.1,0.1,0.3,0.1,0.4,0.2c3.7,1.8,6.6,4.8,8.3,8.7C291.4,226.6,291.9,229.9,291.9,233.3
					c0,2.2,3.5,2.2,3.5,0c-0.1-6.5-1.9-13-6.6-17.7c-2.2-2.2-4.9-3.8-7.8-4.8c-3.9-1.3-7.7-1.3-11.8-0.6c-5,0.9-10,2.2-14.9,3.5
					c-10,2.7-20,5.8-29.7,9.4c-4.4,1.6-8.8,3.4-12.7,6c-3.8,2.5-7,5.7-9.6,9.3c-5.4,7.4-8.7,16.4-12.4,24.8
					c-8.6,19.9-17.4,39.8-25.9,59.7c-1.9,4.5-3.7,9.1-4.3,14.1c-0.5,4.7,0.5,9.3,2.3,13.7c1.9,4.4,4.5,8.3,7.3,12.2
					c3,4.2,6,8.3,9.1,12.5c12.4,16.6,25.8,32.4,39.3,48.1c3.4,3.9,6.7,7.8,10.1,11.6c1.7,2,3.4,3.9,5.1,5.9c1.4,1.6,2.9,3.2,4.7,4.3
					c3.9,2.5,8.5,1.7,11.8-1.3c3.5-3,4.8-7.8,5.7-12.2c4.2-20.6,3.4-41.8,7.2-62.4c3.7-20.3,10.8-39.8,17.2-59.4
					c3.3-10.1,6.4-20.3,9.2-30.5c2.8-10,5.6-20.2,6.7-30.6c0.3-2.6,0.5-5.1,0.4-7.7c-0.1-2.6-0.4-5.3-0.4-7.9
					C295.4,231,291.9,231,291.9,233.3z"/>
			</g>
		</g>
		<g>
			<path class="st2" d="M534.6,233.3c0,3.3-0.5,6.6-0.4,9.9c0.3,9.6,2.6,19,5,28.3c3,11.5,6.3,22.9,10,34.2
				c7.3,22.9,15.9,45.5,19.5,69.3c2.8,18.8,2.3,38.1,6.2,56.8c0.7,3.2,1.5,6.4,3.4,9.1c1.9,2.6,5.1,4.6,8.3,4.1
				c3.2-0.5,5.5-3,7.6-5.4c22-25.1,44-50.3,63.3-77.5c4.6-6.5,9.2-13.6,9.5-21.6c0.2-6.3-2.4-12.4-4.9-18.2
				c-9.5-21.8-18.9-43.6-28.4-65.4c-3.8-8.8-7.9-18-15.4-24.1c-4.8-3.9-10.7-6.3-16.5-8.4c-12.9-4.7-26.1-8.6-39.5-11.6
				c-4.8-1.1-10-2.1-14.5-0.2C547.8,212.5,534.7,215.8,534.6,233.3z"/>
			<g>
				<path d="M532.9,233.3c0,2.7-0.3,5.4-0.4,8.1c-0.1,2.6,0.2,5.3,0.5,7.9c0.6,5.2,1.6,10.3,2.8,15.3c2.5,10.3,5.4,20.6,8.5,30.7
					c6,19.9,13.4,39.3,18.6,59.4c2.6,10.1,4.4,20.3,5.4,30.7c1,10.4,1.5,20.8,2.6,31.1c0.6,5.2,1.3,10.5,2.4,15.6
					c0.9,4.4,2.3,9,5.9,12c3.5,2.8,8.1,3.4,11.9,0.8c1.8-1.2,3.3-2.8,4.7-4.5c1.7-2,3.4-3.9,5.2-5.9c13.6-15.5,27.1-31.2,39.9-47.4
					c6.4-8.1,12.6-16.3,18.6-24.8c5.4-7.6,10.5-16.2,9.3-25.9c-0.6-4.9-2.5-9.5-4.4-14c-2.1-5-4.3-10-6.5-15
					c-4.3-9.9-8.6-19.8-12.9-29.7c-4.1-9.5-8-19.1-12.4-28.4c-3.8-8.1-8.6-15.7-16.3-20.6c-4-2.5-8.4-4.3-12.8-5.9
					c-4.8-1.8-9.7-3.4-14.6-5c-5-1.6-10.1-3-15.2-4.4c-4.9-1.3-9.9-2.7-14.9-3.5c-5-0.8-10-0.4-14.4,2c-4.3,2.3-7.5,6.1-9.4,10.6
					C533.4,226,532.9,229.7,532.9,233.3c0,2.2,3.5,2.2,3.5,0c0-5.8,1.7-11.7,6.1-15.7c1.2-1.1,2.5-2,4.1-2.8
					c0.1-0.1,0.3-0.1,0.4-0.2c0.4-0.2-0.2,0.1,0,0c0.2-0.1,0.4-0.2,0.7-0.3c0.2-0.1,0.4-0.1,0.6-0.2c4.5-1.5,8.8-0.9,13.4,0.2
					c4.9,1.1,9.8,2.3,14.6,3.7c9.6,2.6,19.1,5.6,28.3,9.2c4.2,1.6,8.4,3.6,12,6.3c3.3,2.6,6,5.8,8.3,9.4c4.9,7.7,8.1,16.5,11.8,24.9
					c8.3,19.1,16.8,38.2,24.9,57.4c1.8,4.3,3.6,8.9,3.7,13.7c0.2,4.5-1.2,8.8-3.3,12.8c-2.1,4.2-4.9,8-7.6,11.8
					c-2.9,4-5.8,7.9-8.7,11.8c-12,15.9-24.9,31.1-38,46.2c-3.3,3.8-6.6,7.6-10,11.5c-1.6,1.8-3.2,3.7-4.8,5.5c-1.3,1.5-2.6,3-4.4,4
					c-4,2.3-8-0.7-9.9-4.3c-2.1-4-2.6-9-3.3-13.5c-1.6-10-2.2-20.1-2.9-30.1c-0.8-10-1.8-20-3.8-29.8c-4-19.5-10.9-38.3-17-57.3
					c-3.2-9.7-6.1-19.5-8.8-29.4c-2.7-9.7-5.5-19.6-6.5-29.7c-0.2-2.5-0.4-5-0.3-7.5c0.1-2.5,0.3-5.1,0.4-7.6
					C536.4,231,532.9,231,532.9,233.3z"/>
			</g>
		</g>
		<g>
			<path class="st3" d="M381.4,467.5c-5.9,9.9-6,46.3-4.2,66.9c0.4,4.4,1.2,8.9,3.3,12.8c5.4,10.1,17.8,14.3,29.2,14.7
				c6.9,0.2,13.8-0.7,20.1-3.5c6.3-2.7,11.9-7.3,15.2-13.4c1.9-3.5,2.9-7.4,3.7-11.2c2.3-12.2,1.7-24.9-1.9-36.7
				c-1.4-4.5-3.1-8.9-4.3-13.5c-1.4-5.6-1.9-11.5-1.5-17.3c0,0-23-3.7-29.5-19.1C411.6,447.3,413,465.5,381.4,467.5z"/>
			<g>
				<path d="M379.9,466.6c-2.4,4.1-3.2,9.1-3.8,13.7c-0.9,6.7-1.4,13.5-1.5,20.3c-0.2,7.3-0.1,14.6,0.2,21.8
					c0.1,3.2,0.3,6.4,0.6,9.6c0.3,4.2,0.7,8.4,2.2,12.3c5.6,15.6,24,20.3,39,19c8.8-0.8,17.4-3.7,24-9.7c3-2.7,5.5-6.1,7.1-9.8
					c1.9-4.4,2.9-9,3.5-13.7c1.3-9.5,0.9-19.2-1.3-28.6c-1.1-4.7-2.8-9.3-4.3-13.9c-1.5-4.6-2.5-9.2-2.8-14
					c-0.1-2.4-0.1-4.9,0.1-7.3c0.1-0.7-0.6-1.6-1.3-1.7c-2.7-0.4-5.3-1.2-7.9-2.1c-5.2-1.8-10.3-4.3-14.5-7.9
					c-2.6-2.3-4.7-5.1-6.1-8.3c-0.7-1.6-3.4-0.8-3.2,0.9c0,0.6,0,1.2-0.1,1.8c0.1-0.5,0,0.2-0.1,0.5c-0.1,0.4-0.2,0.7-0.3,1.1
					c-0.1,0.4-0.2,0.7-0.3,1.1c-0.1,0.2-0.1,0.4-0.2,0.6c0,0.1-0.1,0.2-0.1,0.2c0.2-0.4-0.1,0.1-0.1,0.2c-1,2.1-2,3.5-3.7,5.1
					c-2.2,2.1-4.9,3.7-7.7,4.8c-5.1,2-10.5,2.8-15.9,3.2c-2.2,0.1-2.2,3.6,0,3.5c8.7-0.6,18.2-2.3,25.1-8.1
					c3.3-2.8,5.9-6.7,6.6-11.1c0.2-0.9,0.3-1.9,0.2-2.8c-1.1,0.3-2.2,0.6-3.2,0.9c4.6,10.8,16.7,16.6,27.5,19.2c1,0.2,2,0.5,3,0.6
					c-0.4-0.6-0.9-1.1-1.3-1.7c-0.3,4.6-0.1,9.3,0.7,13.8c0.8,4.6,2.3,8.9,3.8,13.3c3,8.7,4.6,17.7,4.5,26.9
					c-0.1,4.6-0.5,9.1-1.4,13.6c-0.9,4.3-2.1,8.5-4.6,12.2c-4.4,6.7-11.8,10.9-19.4,12.7c-7.7,1.9-16.2,1.8-23.8-0.3
					c-6.6-1.8-13-5.3-16.5-11.3c-3.8-6.3-3.8-14.2-4.2-21.3c-0.4-6.8-0.5-13.7-0.4-20.5c0.1-6.8,0.3-13.6,1-20.3
					c0.5-4.9,1.2-10,2.9-14.7c0.2-0.6,0.6-1.3,1-2C384,466.5,381,464.7,379.9,466.6z"/>
			</g>
		</g>
		<g>
			<g>
				<path d="M409.3,470.1c-2.8,17.1-3.9,34.5-3.2,51.9c0.1,2.2,3.6,2.2,3.5,0c-0.7-17,0.3-34.1,3-50.9
					C413,468.9,409.6,467.9,409.3,470.1L409.3,470.1z"/>
			</g>
		</g>
		<circle class="st4" cx="487.8" cy="329.6" r="19.7"/>
		<circle class="st4" cx="337.7" cy="329.6" r="19.7"/>
		<g>
			<path d="M403.5,451.9c-6.9-0.4-12.4-5.9-16.8-11.3c-3.6-4.3-7-8.7-10.2-13.2c-2.5-3.5-5-7.2-6.4-11.3s-1.7-8.8,0.1-12.7
				c3-6.6,10.6-9.4,17.5-11.6c0,0,15.3-3,45.5,0c7.2,0.7,14.5,5.1,17.5,11.6c1.8,3.9,1.5,8.6,0.1,12.7c-1.4,4.1-3.9,7.8-6.4,11.3
				c-3.2,4.5-6.7,8.9-10.2,13.2c-4.5,5.3-9.9,10.8-16.8,11.3H403.5z"/>
			<g>
				<path d="M403.5,450.1c-4.1-0.3-7.6-2.6-10.5-5.3c-3.4-3.1-6.3-6.8-9.2-10.5c-3.1-3.9-6.1-7.9-8.8-12.1c-2.5-4-4.6-8.5-4.4-13.4
					c0.4-8.6,8.7-12.4,15.8-14.8c0.9-0.3,1.7-0.6,2.7-0.7c0.2,0,0.5-0.1,0.7-0.1c0.4-0.1-0.2,0,0,0c0.2,0,0.3,0,0.5-0.1
					c0.8-0.1,1.5-0.2,2.3-0.3c5.4-0.5,10.8-0.7,16.2-0.7c4.1,0,8.3,0.2,12.4,0.4c2.4,0.1,4.8,0.3,7.2,0.5c2.3,0.2,4.7,0.3,6.9,0.8
					c7.9,1.7,15.4,8,14.9,16.7c-0.3,4.8-2.7,9.2-5.3,13.2c-2.8,4.2-5.9,8.2-9,12.1c-2.8,3.5-5.6,7-9,9.9c-2.6,2.3-6,4.3-9.6,4.4
					c-4.2,0.1-8.4,0-12.5,0C404.4,450.1,404,450.1,403.5,450.1c-2.2,0-2.2,3.5,0,3.5c4.3,0,8.5,0,12.8,0c7.8,0,13.7-5.3,18.5-10.9
					c3.5-4.1,6.8-8.4,10-12.7c3.1-4.2,6.1-8.5,7.8-13.4c1.6-4.7,1.7-10-0.6-14.5c-1.9-3.9-5.3-7-9-9c-4.2-2.3-8.7-2.9-13.4-3.3
					c-4.9-0.4-9.9-0.7-14.8-0.9c-6.7-0.2-13.4-0.2-20,0.4c-2.5,0.2-5.1,0.3-7.5,0.9c-3.5,0.9-7.2,2.4-10.3,4.2
					c-3.6,2-6.8,4.8-8.4,8.6c-4.4,10.2,2.6,20.2,8.4,28c3.2,4.3,6.4,8.5,9.9,12.5c2.9,3.3,6.3,6.6,10.3,8.5c2,0.9,4.1,1.5,6.3,1.7
					C405.7,453.8,405.7,450.3,403.5,450.1z"/>
			</g>
		</g>
		<g>
			<g>
				<path d="M411,451.2c-2.7,4.6-7.2,7.6-11.8,10c-4.7,2.4-9.9,3.9-15.2,4.5c-5.4,0.6-10.8,0.3-16-1c-2.6-0.6-5.2-1.5-7.6-2.9
					c-2.3-1.4-4.1-3.4-5.7-5.6c-3.7-4.8-7.5-9.9-9.1-15.8c-0.6-2.2-3.9-1.2-3.4,0.9c1.5,5.9,5.1,10.8,8.7,15.6
					c1.8,2.4,3.6,4.8,5.9,6.6c2.4,1.8,5.2,3,8.1,3.9c11.2,3.3,23.6,2.3,34.2-2.5c5.8-2.6,11.5-6.4,14.7-12
					C415.1,451,412.1,449.2,411,451.2L411,451.2z"/>
			</g>
		</g>
		<g>
			<g>
				<path d="M412.5,454.4c7.8,8.4,19.1,13.4,30.5,13.5c11.1,0.1,22.1-4.6,30-12.4c4.6-4.6,9.3-10.9,8.9-17.7c-0.1-2.2-3.6-2.2-3.5,0
					c0.3,5.5-3.5,10.6-7.1,14.4c-3.5,3.7-7.7,6.7-12.4,8.8c-9.4,4.3-20.1,4.4-29.6,0.7c-5.5-2.1-10.4-5.5-14.4-9.8
					C413.5,450.3,411,452.8,412.5,454.4L412.5,454.4z"/>
			</g>
		</g>
	</g>
	<g>
		<path class="st2" d="M624.6,532.8c-19.8,5.9-41.4,17.4-47.7,21.6c-7.7,5.2-14.7,11.3-21.6,17.5c-7,6.2-18.6,25.9-25.6,32.1
			l221.4-5.9"/>
		<g>
			<path d="M624.1,531.1c-9.2,2.8-18.1,6.4-26.8,10.5c-6.6,3-13.1,6.3-19.3,10.1c-7.9,4.8-15,11.1-21.9,17.2
				c-2.4,2.2-4.7,4.4-6.7,6.9c-2.3,2.9-4.5,5.9-6.7,8.9c-2.5,3.5-5,7-7.6,10.4c-2,2.7-4.1,5.4-6.6,7.7c-1.1,1-0.2,3,1.2,3
				c2-0.1,4-0.1,5.9-0.2c5.4-0.1,10.7-0.3,16.1-0.4c7.9-0.2,15.9-0.4,23.8-0.6c9.7-0.3,19.4-0.5,29.1-0.8
				c10.6-0.3,21.3-0.6,31.9-0.9c10.7-0.3,21.4-0.6,32.1-0.9c10-0.3,19.9-0.5,29.9-0.8c8.5-0.2,16.9-0.5,25.4-0.7
				c6.1-0.2,12.1-0.3,18.2-0.5c2.9-0.1,5.8-0.1,8.6-0.2c0.1,0,0.2,0,0.4,0c2.2-0.1,2.2-3.5,0-3.5c-2,0.1-4,0.1-5.9,0.2
				c-5.4,0.1-10.7,0.3-16.1,0.4c-7.9,0.2-15.9,0.4-23.8,0.6c-9.7,0.3-19.4,0.5-29.1,0.8c-10.6,0.3-21.3,0.6-31.9,0.9
				c-10.7,0.3-21.4,0.6-32.1,0.9c-10,0.3-19.9,0.5-29.9,0.8c-8.5,0.2-16.9,0.5-25.4,0.7c-6.1,0.2-12.1,0.3-18.2,0.5
				c-2.9,0.1-5.8,0-8.6,0.2c-0.1,0-0.2,0-0.4,0c0.4,1,0.8,2,1.2,3c2.2-2,4.1-4.3,5.9-6.6c2.3-2.9,4.4-5.9,6.6-8.9
				c3.9-5.4,7.7-11.3,12.5-16c3.5-3.4,7.4-6.6,11.1-9.7c3.6-3,7.4-5.9,11.4-8.5c5.5-3.5,11.4-6.5,17.3-9.3
				c9.5-4.6,19.3-8.7,29.4-11.7C627.2,533.8,626.3,530.4,624.1,531.1L624.1,531.1z"/>
		</g>
	</g>
	<g>
		<path class="st2" d="M245.6,580c-1.8-26.8-23.3-50.2-49.2-57.4c-25.9-7.2-54.7,0.6-75.6,17.5c-17.6,14.2-30.4,35.5-30,58.1
			c48.2,0.8,96.4,0.1,144.5-2.2c4.4-0.2,10.1-1.8,10-6.2"/>
		<g>
			<path d="M247.3,580c-1-14.4-7.4-27.8-17-38.4c-9.7-10.7-22.8-18.4-36.9-21.6c-15.5-3.5-31.9-1.9-46.7,3.5
				c-14.9,5.4-28.5,14.6-38.9,26.7c-10.1,11.8-17.2,26.4-18.6,42c-0.2,2-0.2,3.9-0.2,5.9c0,1,0.8,1.7,1.7,1.7
				c22.1,0.4,44.2,0.4,66.3,0.1c21.9-0.3,43.8-0.9,65.8-1.8c3.2-0.1,6.3-0.3,9.5-0.4c2.4-0.1,4.7-0.2,7-0.7c3.8-0.8,7.7-3.1,7.7-7.4
				c0-2.2-3.4-2.2-3.5,0c-0.1,3-4.2,3.9-6.6,4.3c-2.2,0.3-4.5,0.3-6.7,0.4c-2.7,0.1-5.3,0.2-8,0.4c-10.6,0.5-21.2,0.8-31.9,1.1
				c-21.3,0.6-42.5,0.9-63.8,0.9c-12,0-23.9-0.1-35.9-0.3c0.6,0.6,1.2,1.2,1.7,1.7c-0.2-15,5.6-29.4,14.4-41.3
				c9.1-12.2,21.6-21.8,35.5-27.9c13.8-6.1,29.4-8.8,44.3-6.6c13.9,2,26.9,8.2,37.1,17.8c9.9,9.3,17.1,21.5,19.4,35
				c0.3,1.6,0.4,3.2,0.6,4.9C244,582.2,247.5,582.3,247.3,580L247.3,580z"/>
		</g>
	</g>
	<g>
		<path class="st2" d="M217.6,532.8c19.8,5.9,41.4,17.4,47.7,21.6c7.7,5.2,14.7,11.3,21.6,17.5c7,6.2,18.6,25.9,25.6,32.1L91.1,598"
			/>
		<g>
			<path d="M217.1,534.4c9,2.7,17.8,6.3,26.4,10.3c6.4,3,12.8,6.2,18.9,9.9c7.9,4.8,14.8,11,21.7,17.1c5.1,4.5,9,10,13,15.5
				c2.5,3.4,4.9,6.9,7.5,10.2c2.1,2.7,4.2,5.4,6.7,7.7c0.4-1,0.8-2,1.2-3c-2-0.1-4-0.1-5.9-0.2c-5.4-0.1-10.7-0.3-16.1-0.4
				c-7.9-0.2-15.9-0.4-23.8-0.6c-9.7-0.3-19.4-0.5-29.1-0.8c-10.6-0.3-21.3-0.6-31.9-0.9c-10.7-0.3-21.4-0.6-32.1-0.9
				c-10-0.3-19.9-0.5-29.9-0.8c-8.5-0.2-16.9-0.5-25.4-0.7c-6.1-0.2-12.1-0.3-18.2-0.5c-2.9-0.1-5.8-0.2-8.6-0.2c-0.1,0-0.2,0-0.4,0
				c-2.2-0.1-2.2,3.4,0,3.5c2,0.1,4,0.1,5.9,0.2c5.4,0.1,10.7,0.3,16.1,0.4c7.9,0.2,15.9,0.4,23.8,0.6c9.7,0.3,19.4,0.5,29.1,0.8
				c10.6,0.3,21.3,0.6,31.9,0.9c10.7,0.3,21.4,0.6,32.1,0.9c10,0.3,19.9,0.5,29.9,0.8c8.5,0.2,16.9,0.5,25.4,0.7
				c6.1,0.2,12.1,0.3,18.2,0.5c2.9,0.1,5.8,0.2,8.6,0.2c0.1,0,0.2,0,0.4,0c1.5,0,2.4-2,1.2-3c-4.9-4.4-8.7-10.3-12.5-15.7
				c-2.2-3.1-4.4-6.2-6.7-9.2c-1.9-2.4-3.8-4.9-6-7c-7.2-6.6-14.7-13.2-23-18.5c-5.6-3.6-11.6-6.6-17.6-9.4
				c-9.7-4.6-19.6-8.8-29.9-11.9C215.9,530.4,215,533.8,217.1,534.4L217.1,534.4z"/>
		</g>
	</g>
	<g>
		<path class="st2" d="M663.3,322.1c2.5,5.8,5.1,11.9,4.9,18.2c-0.3,8-4.9,15.1-9.5,21.6c-19.3,27.3-41.3,52.4-63.3,77.5
			c-2.1,2.4-4.5,5-7.6,5.4c-3.2,0.5-6.4-1.5-8.3-4.1c-1.9-2.6-2.7-5.9-3.4-9.1c-3.9-18.6-3.5-37.9-6.2-56.8c0,0,18.1,20.5,45.8-1.3
			C643.3,351.9,663.3,322.1,663.3,322.1z"/>
	</g>
	<g>
		<path class="st2" d="M165.5,322.1c-2.5,5.8-5.1,11.9-4.9,18.2c0.3,8,4.9,15.1,9.5,21.6c19.3,27.3,41.3,52.4,63.3,77.5
			c2.1,2.4,4.5,5,7.6,5.4c3.2,0.5,6.4-1.5,8.3-4.1c1.9-2.6,2.7-5.9,3.4-9.1c3.9-18.6,3.5-37.9,6.2-56.8c0,0-18.1,20.5-45.8-1.3
			C185.5,351.9,165.5,322.1,165.5,322.1z"/>
	</g>
	<g>
		<path class="st2" d="M720.7,541c-0.2-1.4,29.4,22.4,30,58.1c-23,0.4-45.9,0.4-68.9,0.1C681.8,599.2,728.7,587.2,720.7,541z"/>
	</g>
	<g>
		<path class="st2" d="M120.8,541c0.2-1.4-29.4,22.4-30,58.1c23,0.4,45.9,0.4,68.9,0.1C159.6,599.2,112.7,587.2,120.8,541z"/>
	</g>
	<g>
		<path class="st3" d="M441.1,485.7c-1.4-5.6-1.9-11.5-1.5-17.3c0,0-23-3.7-29.5-19.1c0,0,1.4,18.3-30.2,20.2
			c-4.3,0.3-6,31.2-4.5,34.3c4.9,10.5,25.5-2.5,30.1-7.9c0.5-0.6,1.1-1.2,1.8-1.4c0.6-0.1,1.2,0.1,1.8,0.4c6,2.5,11.9,5.3,18.2,6.8
			c3.8,0.9,14.1,2.8,16.9-1.1C446.7,497.3,442,489.2,441.1,485.7z"/>
	</g>
</g>
</svg>
