<?xml version="1.0" encoding="utf-8"?>
<!-- Generator: Adobe Illustrator 27.7.0, SVG Export Plug-In . SVG Version: 6.00 Build 0)  -->
<svg version="1.1" id="Layer_1" xmlns="http://www.w3.org/2000/svg" xmlns:xlink="http://www.w3.org/1999/xlink" x="0px" y="0px"
	 viewBox="0 0 1921 62.6" style="enable-background:new 0 0 1921 62.6;" xml:space="preserve">
<style type="text/css">
	.st0{fill:#FFFFFF;}
</style>
<path class="st0" d="M88.5-964.6c-21.6,3.3-46.8,14-68.6,9.2l-2.7,18.4c7.2,21.7,18.8,40.7,10.3,63.9c-3.7,10.2-14.4,17.3-19.6,26.9
	c-4.1,7.6-5.4,16.3-6.3,24.4c-4.6,39.3,2.7,79.5,5.4,118.8c3.1,43.8,0.7,87.6,2.4,131.5c1.3,34.1,6.8,67.9,10.6,101.8
	c3.6,32.2,1.6,64.1,0,96.3c-1.4,28.2-5.2,56.7,0.6,84.8c4.6,22.2,16,43,17.8,65.5c3.9,48.8-4.4,98.2-4.8,147.1
	c-0.2,26.8,0,53.6,0,80.4c0,18-5.7,53.5,31.1,54.3c36.6,0.8,73.4,0,110.1,0c52.2,0,104.4,4.1,156.6,4.1c55.7,0,111.1-2,166.9-2
	c129,0,257.3-6.8,386.4-4.2c94.3,1.9,188.1-6,282.4-6c94.3,0,188.3-8.2,282.5-8.2c78.8,0,157.4,2.5,236.3,2
	c43.1-0.2,85.3-5.5,128.1-8.6c24.5-1.8,49,0,73.4-1.7c27.2-1.8,21.8-20.2,21.8-36.2c0-15.6-2.9-30.9-2.7-46.7
	c0.4-27.6,6.6-54.9,8-82.3c3.2-64.4,10.6-129.3,4.1-193.8c-4.8-47.8-4.2-95-1.2-142.8c2.4-38.3,7.4-78.1-2.1-116.1
	c-7.7-30.6-7-60.9-9.4-91.8c-2.5-33.1-11.6-65.8-12.8-98.8c-2.3-59.5,35.3-114.1,21.6-174.5c-3.2-14.3-1.8-13.9-19-17
	c-15.2-2.8-30.3-4.2-45.9-5.6c-18.2-1.5-36.1,1.5-54.1-2.2c-33.8-6.8-69.4-9.2-103.7-15.2c-45.9-8-88.9-7.3-136.1-7.3
	c-61.4,0-120.9,3.2-182.1,7.3c-33.8,2.3-71.9,1.8-105.7-2.2c-14.7-1.7-29.5-4.9-44.4-5.1c-66.8-1.1-132.3,4.2-198.6,10.1
	c-42.6,3.8-82.9,3.4-125.6,2.3c-32.4-0.9-61.7,2.7-93.5,6c-76,7.9-151.6,10-227.3,1.1c-69.6-8.1-142.1-2.1-211.9,1.4
	c-41.3,2-82.7,1.9-124.1,1.6c-21.3-0.2-38.9-1.8-60.7,0.9C150.9-969.1,119.2-969.3,88.5-964.6z"/>
</svg>
