<svg width="305" height="25" viewBox="0 0 305 25" fill="none" xmlns="http://www.w3.org/2000/svg">
<path d="M0.00456061 9.52884C0.360314 12.8052 0.716067 16.0815 1.07182 19.3557C1.19953 20.5449 1.40477 21.8293 2.98742 22.7291C4.78899 23.7515 7.80377 23.9607 10.5449 24.0726C18.3031 24.3916 26.0977 24.493 33.8832 24.3768C41.7189 24.2585 49.5136 23.741 57.3538 23.61C106.717 22.7862 153.17 23.5509 201.147 23.7452C212.18 23.7896 223.226 23.891 234.2 24.436C253.657 25.4013 273.123 25.0654 292.534 23.9079C295.116 23.7537 297.784 23.5171 299.905 22.7756C303.882 21.3836 304.757 18.686 304.935 16.2843C305.227 12.3341 304.529 8.36703 302.86 4.50136C302.573 3.84018 302.203 3.13465 301.154 2.69738C300.119 2.26645 298.669 2.20097 297.319 2.15661C244.106 0.388542 190.693 1.67076 137.362 1.34123C126.352 1.27363 115.346 1.13633 104.341 0.999022C78.357 0.675827 52.3733 0.352632 26.3942 0.0315489C19.8173 -0.0508342 12.8664 -0.0867447 7.15612 1.52289C1.44582 3.13253 1.3546 3.24238 0 9.53095L0.00456061 9.52884Z" fill="#A3F937"/>
</svg>
